<?xml version="1.0" standalone="no"?>
<!DOCTYPE svg PUBLIC "-//W3C//DTD SVG 20010904//EN"
 "http://www.w3.org/TR/2001/REC-SVG-20010904/DTD/svg10.dtd">
<svg version="1.0" xmlns="http://www.w3.org/2000/svg"
 width="512.000000pt" height="512.000000pt" viewBox="0 0 512.000000 512.000000"
 preserveAspectRatio="xMidYMid meet">

<g transform="translate(0.000000,512.000000) scale(0.100000,-0.100000)"
fill="#000000" stroke="none">
<path d="M2205 4135 c-336 -845 -349 -875 -374 -875 -60 1 -1749 -111 -1785
-118 l-38 -7 706 -599 c388 -330 706 -606 706 -613 0 -7 -103 -419 -230 -915
-126 -496 -229 -903 -227 -904 2 -2 361 223 799 500 l797 504 797 -504 c439
-277 798 -503 800 -501 1 1 -282 1119 -440 1735 l-24 93 710 602 710 602 -39
7 c-35 7 -1723 118 -1785 118 -26 0 -34 19 -375 875 -191 481 -351 875 -354
875 -3 0 -162 -394 -354 -875z"/>
</g>
</svg>
